# File created by Blade
# Date/Time:  Fri Jan 16 19:14:28 2015
# Frame Rate: 120.000 fps
#------------------------------------------------------
:FULLY-SPECIFIED
:DEGREES
931
root 18.960725 35.820027 -22.059720 -167.784804 0.187570 -178.362024
Spine -24.591112 -0.553289 0.387278
Head 16.970039 2.933155 1.766247
LeftShoulder -26.214931 -70.064564 76.349354
LeftArm 51.704362 -22.462881 -0.476925
LeftForeArm -4.499628 -0.000000 1.470184
LeftHand -0.240985 -0.000000 -22.634203
LeftHandThumb1 -26.253704 0.000000 33.147579
RightShoulder -9.408508 19.727376 -47.617022
RightArm 37.998430 50.606340 -17.830665
RightForeArm -56.359990 -0.000000 8.346913
RightHand -0.842136 -0.000000 -4.260554
RightHandThumb1 -24.326973 -0.000000 -32.862282
LeftUpLeg -2.604539 8.261098 0.265991
LeftLeg -7.505827 -0.000000 0.000000
LeftFoot -19.939933 28.524385 -17.048864
LeftToeBase 22.979732 -0.000000 -0.000000
RightUpLeg -4.691551 -8.682304 1.274716
RightLeg -3.963217 -0.000000 0.000000
RightFoot -18.815529 -22.026233 20.769702
RightToeBase 22.543923 -0.000000 -0.000000
932
root 18.958495 35.819208 -22.061298 -167.783026 0.188346 -178.361494
Spine -24.583530 -0.521302 0.422527
Head 16.975976 3.076993 1.699117
LeftShoulder -26.304884 -70.094972 76.382491
LeftArm 51.686931 -22.406322 -0.525923
LeftForeArm -4.560712 -0.000000 1.547037
LeftHand -0.180183 -0.000000 -22.582034
LeftHandThumb1 -26.253704 0.000000 33.147579
RightShoulder -9.430613 19.645426 -47.659010
RightArm 37.993661 50.627510 -17.840427
RightForeArm -56.347628 -0.000000 8.315203
RightHand -0.828221 -0.000000 -4.248771
RightHandThumb1 -24.326973 -0.000000 -32.862282
LeftUpLeg -2.602600 8.259153 0.262943
LeftLeg -7.507031 -0.000000 0.000000
LeftFoot -19.937107 28.529086 -17.037275
LeftToeBase 22.975117 -0.000000 -0.000000
RightUpLeg -4.680829 -8.677954 1.266253
RightLeg -3.977902 -0.000000 0.000000
RightFoot -18.799830 -22.009724 20.751435
RightToeBase 22.520964 -0.000000 -0.000000
933
root 18.956821 35.818666 -22.063439 -167.784149 0.184470 -178.358336
Spine -24.587867 -0.493151 0.436650
Head 16.976878 3.107430 1.637301
LeftShoulder -26.230197 -70.064879 76.269872
LeftArm 51.687923 -22.408023 -0.543457
LeftForeArm -4.680658 -0.000000 1.606748
LeftHand -0.192788 -0.000000 -22.569738
LeftHandThumb1 -26.253704 0.000000 33.147579
RightShoulder -9.462955 19.616930 -47.681274
RightArm 38.150739 50.669141 -17.658680
RightForeArm -56.486291 -0.000000 8.348016
RightHand -0.943347 -0.000000 -4.182173
RightHandThumb1 -24.326973 -0.000000 -32.862282
LeftUpLeg -2.595882 8.257213 0.264257
LeftLeg -7.511355 -0.000000 0.000000
LeftFoot -19.942794 28.524702 -17.031201
LeftToeBase 22.998722 -0.000000 -0.000000
RightUpLeg -4.670467 -8.691069 1.265699
RightLeg -3.987762 -0.000000 0.000000
RightFoot -18.789732 -21.995498 20.729040
RightToeBase 22.579347 -0.000000 -0.000000
934
root 18.954563 35.818192 -22.067041 -167.792401 0.181756 -178.362306
Spine -24.585115 -0.480173 0.421609
Head 16.972052 3.109128 1.622461
LeftShoulder -26.200207 -70.002820 76.226147
LeftArm 51.727145 -22.425977 -0.588279
LeftForeArm -4.747196 -0.000000 1.643040
LeftHand -0.301830 -0.000000 -22.530047
LeftHandThumb1 -26.253704 0.000000 33.147579
RightShoulder -9.467932 19.562078 -47.667619
RightArm 38.180704 50.695418 -17.583257
RightForeArm -56.618439 -0.000000 8.361304
RightHand -0.984778 0.000000 -4.174522
RightHandThumb1 -24.326973 -0.000000 -32.862282
LeftUpLeg -2.582519 8.268126 0.257373
LeftLeg -7.512058 -0.000000 0.000000
LeftFoot -19.944885 28.515909 -17.027424
LeftToeBase 23.011724 -0.000000 -0.000000
RightUpLeg -4.651469 -8.728233 1.267041
RightLeg -4.003595 -0.000000 0.000000
RightFoot -18.774500 -22.005006 20.719020
RightToeBase 22.550177 -0.000000 -0.000000
935
root 18.952840 35.817939 -22.071605 -167.803675 0.180051 -178.366691
Spine -24.590079 -0.480550 0.423943
Head 16.995273 3.120320 1.596443
LeftShoulder -26.085953 -69.984942 76.108779
LeftArm 51.645323 -22.262378 -0.388929
LeftForeArm -4.985566 -0.000000 1.721821
LeftHand -0.298983 -0.000000 -22.463631
LeftHandThumb1 -26.253704 0.000000 33.147579
RightShoulder -9.491955 19.585463 -47.685775
RightArm 38.317062 50.619308 -17.441721
RightForeArm -56.571455 -0.000000 8.315088
RightHand -0.948234 0.000000 -4.475594
RightHandThumb1 -24.326973 -0.000000 -32.862282
LeftUpLeg -2.560942 8.276831 0.251284
LeftLeg -7.520351 -0.000000 0.000000
LeftFoot -19.938663 28.516378 -17.025039
LeftToeBase 22.965799 -0.000000 -0.000000
RightUpLeg -4.623212 -8.727289 1.251689
RightLeg -4.017658 -0.000000 0.000000
RightFoot -18.768066 -21.971867 20.708154
RightToeBase 22.808838 -0.000000 -0.000000
936
root 18.950261 35.817605 -22.076265 -167.822351 0.172817 -178.371761
Spine -24.588421 -0.464709 0.414345
Head 17.020247 3.117119 1.611238
LeftShoulder -25.967523 -69.953737 75.976981
LeftArm 51.628998 -22.193367 -0.300423
LeftForeArm -5.144882 -0.000000 1.758412
LeftHand -0.220408 -0.000000 -22.423022
LeftHandThumb1 -26.253704 0.000000 33.147579
RightShoulder -9.469040 19.509132 -47.674691
RightArm 38.224470 50.559634 -17.522818
RightForeArm -56.545124 -0.000000 8.316894
RightHand -0.901514 -0.000000 -4.636217
RightHandThumb1 -24.326973 -0.000000 -32.862282
LeftUpLeg -2.532118 8.276539 0.246530
LeftLeg -7.526988 -0.000000 0.000000
LeftFoot -19.942979 28.504186 -17.038940
LeftToeBase 22.982224 -0.000000 -0.000000
RightUpLeg -4.593421 -8.743421 1.248306
RightLeg -4.031552 -0.000000 0.000000
RightFoot -18.766130 -21.988643 20.784892
RightToeBase 22.400423 -0.000000 -0.000000
937
root 18.946999 35.817342 -22.080774 -167.839714 0.153882 -178.378567
Spine -24.587777 -0.468589 0.411831
Head 17.044364 3.098284 1.616297
LeftShoulder -25.866025 -69.918490 75.855741
LeftArm 51.619618 -22.140257 -0.238127
LeftForeArm -5.290577 -0.000000 1.805227
LeftHand -0.260431 0.000000 -22.441145
LeftHandThumb1 -26.253704 0.000000 33.147579
RightShoulder -9.475406 19.514296 -47.673040
RightArm 38.249226 50.429747 -17.525199
RightForeArm -56.466769 -0.000000 8.280076
RightHand -0.910163 -0.000000 -4.686396
RightHandThumb1 -24.326973 -0.000000 -32.862282
LeftUpLeg -2.513982 8.267231 0.238938
LeftLeg -7.521776 -0.000000 0.000000
LeftFoot -19.951811 28.499427 -17.049100
LeftToeBase 22.997244 -0.000000 -0.000000
RightUpLeg -4.567896 -8.746718 1.232462
RightLeg -4.026602 -0.000000 0.000000
RightFoot -18.790977 -22.011357 20.715264
RightToeBase 22.814852 -0.000000 -0.000000
